<?xml version="1.0" encoding="utf-8"?>
<!-- Generator: Adobe Illustrator 19.2.1, SVG Export Plug-In . SVG Version: 6.00 Build 0)  -->
<svg version="1.1" id="Layer_1" xmlns="http://www.w3.org/2000/svg" xmlns:xlink="http://www.w3.org/1999/xlink" x="0px" y="0px"
	 width="100px" height="100px" viewBox="0 0 100 100" enable-background="new 0 0 100 100" xml:space="preserve">
<path fill="#282828" d="M13.303,79.427l-8.726,7.797l-0.639-0.421c1.445-2.841,2.748-5.773,4.385-8.501
	c1.248-2.084,1.073-3.587-0.334-5.601c-9.025-12.919-10.505-26.55-3.916-41.091c3.218-7.104,2.189-13.987-2.853-20.117
	c-0.175-0.212-0.255-0.503-0.498-1.006c6.419-1.048,12.521-0.21,18.295,2.119c3.751,1.514,7.267,3.718,10.67,5.945
	c1.477,0.966,2.404,1.363,4.168,0.61c12.949-5.512,26.559-8.537,40.469-10.338c0.271-0.035,0.563,0.086,1.659,0.274
	c-2.342,7.188-4.627,14.204-6.952,21.332c-6.881-1.707-12.25-0.424-16.87,5.144c2.937-0.198,5.217-0.618,7.435-0.407
	c1.444,0.142,3.065,0.943,4.055,1.977c0.373,0.389-0.651,2.371-1.323,3.444c-1.048,1.677-2.339,3.202-3.697,5.017
	c3.537,1.927,7.205,2.234,10.825,1.906c3.719-0.337,7.454-1.447,8.813,4.377c0.977-1.632,1.415-2.636,2.097-3.422
	c0.593-0.684,1.393-1.445,2.22-1.629c9.32-2.07,10.8-2.83,17.401-9.575c0.13,4.945-0.514,9.214-2.726,13.177
	c-2.731,4.894-6.83,8.236-11.901,10.547c-1.126,0.512-2.424,1.513-2.838,2.598C71.481,92.54,35.51,99.94,14.113,79.9
	c-0.141-0.133-0.339-0.202-0.81-0.472L13.303,79.427z M52.998,50.851c-1.839,3.724-3.789,6.764-4.874,10.087
	c-1.679,5.137,0.463,9.412,5.301,11.919c8.409,4.358,18.039-0.816,19.421-10.659c-8.141-0.337-14.191-4.582-19.85-11.348
	L52.998,50.851z"/>
</svg>
